HIERARCHY
ROOT Hips
{
  OFFSET 0.370964 79.426 0.0717558
  CHANNELS 6 Xposition Yposition Zposition Zrotation Xrotation Yrotation
  JOINT Spine
  {
    OFFSET 0 8.5038 -4.6017
    CHANNELS 6 Xposition Yposition Zposition Zrotation Xrotation Yrotation
    JOINT Spine1
    {
      OFFSET 0 7.7603 0.4054
      CHANNELS 6 Xposition Yposition Zposition Zrotation Xrotation Yrotation
      JOINT Spine2
      {
        OFFSET 0 9.6025 -2.1374
        CHANNELS 6 Xposition Yposition Zposition Zrotation Xrotation Yrotation
        JOINT Neck
        {
          OFFSET 0 21.6389 -0.45
          CHANNELS 6 Xposition Yposition Zposition Zrotation Xrotation Yrotation
          JOINT Head
          {
            OFFSET -0.0001 12.2197 3.3238
            CHANNELS 6 Xposition Yposition Zposition Zrotation Xrotation Yrotation
            End Site
            {
              OFFSET 0.0001 17.074 0.5097
            }
          }
        }
        JOINT LeftShoulder
        {
          OFFSET 2.1846 20.8826 7.1545
          CHANNELS 6 Xposition Yposition Zposition Zrotation Xrotation Yrotation
          JOINT LeftArm
          {
            OFFSET 12.7628 2.9953 -4.8467
            CHANNELS 6 Xposition Yposition Zposition Zrotation Xrotation Yrotation
            JOINT LeftForeArm
            {
              OFFSET 27.1108 -0.0961 -0.2349
              CHANNELS 6 Xposition Yposition Zposition Zrotation Xrotation Yrotation
              JOINT LeftHand
              {
                OFFSET 22.6162 0.0656 -0.1355
                CHANNELS 6 Xposition Yposition Zposition Zrotation Xrotation Yrotation
                JOINT LeftHandIndex1
                {
                  OFFSET 8.7654 0.7666 2.4346
                  CHANNELS 6 Xposition Yposition Zposition Zrotation Xrotation Yrotation
                  JOINT LeftHandIndex2
                  {
                    OFFSET 3.2787 -0.7995 0.5777
                    CHANNELS 6 Xposition Yposition Zposition Zrotation Xrotation Yrotation
                    JOINT LeftHandIndex3
                    {
                      OFFSET 2.2383 -0.5459 0.3945
                      CHANNELS 6 Xposition Yposition Zposition Zrotation Xrotation Yrotation
                      End Site
                      {
                        OFFSET 1.5927 -0.4755 0.2584
                      }
                    }
                  }
                }
                JOINT LeftHandMiddle1
                {
                  OFFSET 8.8962 0.8853 0.212
                  CHANNELS 6 Xposition Yposition Zposition Zrotation Xrotation Yrotation
                  JOINT LeftHandMiddle2
                  {
                    OFFSET 4.0539 0.0113 -0.0239
                    CHANNELS 6 Xposition Yposition Zposition Zrotation Xrotation Yrotation
                    JOINT LeftHandMiddle3
                    {
                      OFFSET 2.2471 0.0069 -0.0137
                      CHANNELS 6 Xposition Yposition Zposition Zrotation Xrotation Yrotation
                      End Site
                      {
                        OFFSET 2.0183 -0.1425 0.0027
                      }
                    }
                  }
                }
                JOINT LeftHandRing1
                {
                  OFFSET 8.431 0.5908 -1.9946
                  CHANNELS 6 Xposition Yposition Zposition Zrotation Xrotation Yrotation
                  JOINT LeftHandRing2
                  {
                    OFFSET 3.6785 -0.1862 -0.2303
                    CHANNELS 6 Xposition Yposition Zposition Zrotation Xrotation Yrotation
                    JOINT LeftHandRing3
                    {
                      OFFSET 2.0962 -0.1055 -0.1317
                      CHANNELS 6 Xposition Yposition Zposition Zrotation Xrotation Yrotation
                      End Site
                      {
                        OFFSET 1.8534 -0.2279 -0.0876
                      }
                    }
                  }
                }
                JOINT LeftHandPinky1
                {
                  OFFSET 7.8236 -0.5945 -3.4447
                  CHANNELS 6 Xposition Yposition Zposition Zrotation Xrotation Yrotation
                  JOINT LeftHandPinky2
                  {
                    OFFSET 2.2626 -0.4719 -0.6246
                    CHANNELS 6 Xposition Yposition Zposition Zrotation Xrotation Yrotation
                    JOINT LeftHandPinky3
                    {
                      OFFSET 1.6592 -0.3455 -0.4583
                      CHANNELS 6 Xposition Yposition Zposition Zrotation Xrotation Yrotation
                      End Site
                      {
                        OFFSET 1.4727 -0.4046 -0.3379
                      }
                    }
                  }
                }
                JOINT LeftHandThumb1
                {
                  OFFSET 1.8133 -1.3724 1.3746
                  CHANNELS 6 Xposition Yposition Zposition Zrotation Xrotation Yrotation
                  JOINT LeftHandThumb2
                  {
                    OFFSET 3.376 -1.1087 2.5453
                    CHANNELS 6 Xposition Yposition Zposition Zrotation Xrotation Yrotation
                    JOINT LeftHandThumb3
                    {
                      OFFSET 2.223 -0.7955 1.6016
                      CHANNELS 6 Xposition Yposition Zposition Zrotation Xrotation Yrotation
                      End Site
                      {
                        OFFSET 1.6347 -0.5627 1.1194
                      }
                    }
                  }
                }
              }
            }
          }
        }
        JOINT RightShoulder
        {
          OFFSET -2.1846 20.8826 7.1545
          CHANNELS 6 Xposition Yposition Zposition Zrotation Xrotation Yrotation
          JOINT RightArm
          {
            OFFSET -12.7651 2.9958 -4.8475
            CHANNELS 6 Xposition Yposition Zposition Zrotation Xrotation Yrotation
            JOINT RightForeArm
            {
              OFFSET -27.1108 -0.0961 -0.2349
              CHANNELS 6 Xposition Yposition Zposition Zrotation Xrotation Yrotation
              JOINT RightHand
              {
                OFFSET -22.6162 0.0656 -0.1355
                CHANNELS 6 Xposition Yposition Zposition Zrotation Xrotation Yrotation
                JOINT RightHandIndex1
                {
                  OFFSET -8.7654 0.7667 2.4346
                  CHANNELS 6 Xposition Yposition Zposition Zrotation Xrotation Yrotation
                  JOINT RightHandIndex2
                  {
                    OFFSET -3.2787 -0.7995 0.5777
                    CHANNELS 6 Xposition Yposition Zposition Zrotation Xrotation Yrotation
                    JOINT RightHandIndex3
                    {
                      OFFSET -2.2383 -0.5461 0.3945
                      CHANNELS 6 Xposition Yposition Zposition Zrotation Xrotation Yrotation
                      End Site
                      {
                        OFFSET -1.5928 -0.4755 0.2584
                      }
                    }
                  }
                }
                JOINT RightHandMiddle1
                {
                  OFFSET -8.8962 0.8853 0.212
                  CHANNELS 6 Xposition Yposition Zposition Zrotation Xrotation Yrotation
                  JOINT RightHandMiddle2
                  {
                    OFFSET -4.0539 0.0113 -0.024
                    CHANNELS 6 Xposition Yposition Zposition Zrotation Xrotation Yrotation
                    JOINT RightHandMiddle3
                    {
                      OFFSET -2.2471 0.0069 -0.0137
                      CHANNELS 6 Xposition Yposition Zposition Zrotation Xrotation Yrotation
                      End Site
                      {
                        OFFSET -2.0183 -0.1425 0.0027
                      }
                    }
                  }
                }
                JOINT RightHandRing1
                {
                  OFFSET -8.431 0.5908 -1.9946
                  CHANNELS 6 Xposition Yposition Zposition Zrotation Xrotation Yrotation
                  JOINT RightHandRing2
                  {
                    OFFSET -3.6785 -0.1862 -0.2303
                    CHANNELS 6 Xposition Yposition Zposition Zrotation Xrotation Yrotation
                    JOINT RightHandRing3
                    {
                      OFFSET -2.0962 -0.1055 -0.1317
                      CHANNELS 6 Xposition Yposition Zposition Zrotation Xrotation Yrotation
                      End Site
                      {
                        OFFSET -1.8534 -0.2279 -0.0876
                      }
                    }
                  }
                }
                JOINT RightHandPinky1
                {
                  OFFSET -7.8236 -0.5945 -3.4447
                  CHANNELS 6 Xposition Yposition Zposition Zrotation Xrotation Yrotation
                  JOINT RightHandPinky2
                  {
                    OFFSET -2.2626 -0.4718 -0.624601
                    CHANNELS 6 Xposition Yposition Zposition Zrotation Xrotation Yrotation
                    JOINT RightHandPinky3
                    {
                      OFFSET -1.6592 -0.3454 -0.4583
                      CHANNELS 6 Xposition Yposition Zposition Zrotation Xrotation Yrotation
                      End Site
                      {
                        OFFSET -1.4727 -0.4046 -0.3379
                      }
                    }
                  }
                }
                JOINT RightHandThumb1
                {
                  OFFSET -1.8133 -1.3723 1.3745
                  CHANNELS 6 Xposition Yposition Zposition Zrotation Xrotation Yrotation
                  JOINT RightHandThumb2
                  {
                    OFFSET -3.3759 -1.1088 2.5454
                    CHANNELS 6 Xposition Yposition Zposition Zrotation Xrotation Yrotation
                    JOINT RightHandThumb3
                    {
                      OFFSET -2.223 -0.7954 1.6016
                      CHANNELS 6 Xposition Yposition Zposition Zrotation Xrotation Yrotation
                      End Site
                      {
                        OFFSET -1.6347 -0.5627 1.1194
                      }
                    }
                  }
                }
              }
            }
          }
        }
      }
    }
  }
  JOINT RightUpLeg
  {
    OFFSET -9.0969 3.8439 -0.7498
    CHANNELS 6 Xposition Yposition Zposition Zrotation Xrotation Yrotation
    JOINT RightLeg
    {
      OFFSET -0.7279 -39.5674 0
      CHANNELS 6 Xposition Yposition Zposition Zrotation Xrotation Yrotation
      JOINT RightFoot
      {
        OFFSET 0 -38.8528 0
        CHANNELS 6 Xposition Yposition Zposition Zrotation Xrotation Yrotation
        JOINT RightToeBase
        {
          OFFSET 0 -4.2703 8.9297
          CHANNELS 6 Xposition Yposition Zposition Zrotation Xrotation Yrotation
          End Site
          {
            OFFSET 0 0 5.9906
          }
        }
      }
    }
  }
  JOINT LeftUpLeg
  {
    OFFSET 9.0968 3.8442 -0.7498
    CHANNELS 6 Xposition Yposition Zposition Zrotation Xrotation Yrotation
    JOINT LeftLeg
    {
      OFFSET 0.728 -39.5676 0
      CHANNELS 6 Xposition Yposition Zposition Zrotation Xrotation Yrotation
      JOINT LeftFoot
      {
        OFFSET 0 -38.8528 0
        CHANNELS 6 Xposition Yposition Zposition Zrotation Xrotation Yrotation
        JOINT LeftToeBase
        {
          OFFSET 0 -4.2703 8.9297
          CHANNELS 6 Xposition Yposition Zposition Zrotation Xrotation Yrotation
          End Site
          {
            OFFSET 0 0 5.9906
          }
        }
      }
    }
  }
}
MOTION
Frames:	4
Frame Time:	0.0333333
-14.3897 71.9085 118.049 19.5887 73.3352 -163.978 -7.10543e-015 8.5038 -4.6017 -3.24999 -0.69717 -2.30636 -7.10543e-015 7.7603 0.4054 -6.52601 -1.26192 -4.64895 0 9.6025 -2.1374 -6.52601 -1.26192 -4.64896 -1.42109e-014 21.6389 -0.45 3.57441e-005 0.000139536 4.6288e-005 -0.0001 12.2197 3.3238 -4.94006 -18.5535 -56.501 2.1846 20.8826 7.1545 30.4057 0.754693 1.96521 12.7628 2.9953 -4.8467 -66.0925 0.666639 -64.2853 27.1108 -0.0961 -0.2349 0.324235 1.32335 -106.589 22.6162 0.0656 -0.1355 -43.9413 -25.9519 -41.9942 8.7654 0.7666 2.4346 -16.8532 8.44159 11.4834 3.2787 -0.7995 0.5777 -15.0073 6.5799 2.34891 2.2383 -0.5459 0.3945 -27.7121 11.3681 5.55368 8.8962 0.8853 0.212 -27.1776 5.59507 1.36216 4.0539 0.0113 -0.0239 -8.14018 1.75372 0.144294 2.2471 0.0069 -0.0137 -23.9476 5.01862 1.05013 8.431 0.5908 -1.9946 -28.8383 -0.442646 -5.67487 3.6785 -0.1862 -0.2303 -9.93311 -0.41914 -1.9298 2.0962 -0.1055 -0.1317 -16.4529 -0.513185 -3.22251 7.8236 -0.5945 -3.4447 -3.02884 -4.06883 -23.567 2.2626 -0.4719 -0.6246 -17.6323 -5.64675 -5.92829 1.6592 -0.3455 -0.4583 -11.8417 -4.02 -3.815 1.8133 -1.3724 1.3746 -4.06656 -52.2986 15.1083 3.376 -1.1087 2.5453 -0.316893 -0.311059 -0.686347 2.223 -0.7955 1.6016 5.79417 7.38482 14.1709 -2.1846 20.8826 7.1545 2.7128 0.138687 2.93091 -12.7651 2.9958 -4.8475 42.7302 -36.5147 -32.3886 -27.1108 -0.0961 -0.2349 -1.83524 1.39215 136.879 -22.6162 0.0656 -0.1355 5.57048 -2.49978 -31.0903 -8.7654 0.7667 2.4346 6.77187 5.51352 -9.27697 -3.2787 -0.7995 0.5777 14.4176 5.79465 -2.13934 -2.2383 -0.5461 0.3945 19.4416 7.63218 -3.20622 -8.8962 0.8853 0.212 19.0582 3.4324 -0.522065 -4.0539 0.0113 -0.024 4.40467 0.806535 -0.0267415 -2.2471 0.0069 -0.0137 16.0725 2.90995 -0.365311 -8.431 0.5908 -1.9946 23.3672 -1.07601 4.85513 -3.6785 -0.1862 -0.2303 7.46217 -0.567565 1.49823 -2.0962 -0.1055 -0.1317 9.0772 -0.664313 1.83103 -7.8236 -0.5945 -3.4447 18.5848 -1.52161 24.1469 -2.2626 -0.4718 -0.624601 10.0084 -3.77937 3.32013 -1.6592 -0.3454 -0.4583 16.8221 -5.94911 5.88789 -1.8133 -1.3723 1.3745 8.46675 -52.384 4.00563 -3.3759 -1.1088 2.5454 -3.0138 3.58266 -7.28214 -2.223 -0.7954 1.6016 -1.84002 2.07597 -4.32626 -9.0969 3.8439 -0.7498 7.24893 -28.4123 8.29714 -0.7279 -39.5674 -1.42109e-014 161.12 32.0214 -162.596 0 -38.8528 0 -8.42177 7.54122 36.8018 -7.10543e-015 -4.2703 8.9297 0.0139101 0.390583 -0.425746 9.0968 3.8442 -0.7498 5.35324 22.8438 -35.5868 0.728 -39.5676 0 -5.87314 54.0209 11.9716 -8.88178e-016 -38.8528 0 2.78786 -1.29897 -7.67579 0 -4.2703 8.9297 0.00486545 0.396464 0.401972 
-14.3245 71.8905 118.014 19.3759 73.4136 -163.78 0 8.5038 -4.6017 -3.26559 -0.685159 -2.30559 0 7.7603 0.4054 -6.55666 -1.23726 -4.64685 0 9.6025 -2.1374 -6.55668 -1.23726 -4.64686 7.10543e-015 21.6389 -0.45 3.57441e-005 0.000139536 4.6288e-005 -0.0001 12.2197 3.3238 -5.22856 -18.6713 -56.0791 2.1846 20.8826 7.1545 30.2683 0.747608 1.95759 12.7628 2.9953 -4.8467 -65.7678 0.469663 -64.2314 27.1108 -0.0961 -0.2349 0.32067 1.32182 -106.331 22.6162 0.0656 -0.1355 -43.9644 -25.8936 -42.6016 8.7654 0.7666 2.4346 -16.8445 8.43956 11.4813 3.2787 -0.7995 0.5777 -15.0195 6.58489 2.35148 2.2383 -0.5459 0.3945 -27.8023 11.3989 5.57992 8.8962 0.8853 0.212 -27.1916 5.5861 1.36682 4.0539 0.0113 -0.0239 -8.15297 1.75648 0.143198 2.2471 0.0069 -0.0137 -23.9774 5.02445 1.05351 8.431 0.5908 -1.9946 -28.8302 -0.479006 -5.68587 3.6785 -0.1862 -0.2303 -9.95079 -0.420157 -1.93328 2.0962 -0.1055 -0.1317 -16.4826 -0.513725 -3.22842 7.8236 -0.5945 -3.4447 -3.04547 -4.10226 -23.6045 2.2626 -0.4719 -0.6246 -17.5932 -5.63658 -5.91355 1.6592 -0.3455 -0.4583 -11.8892 -4.03429 -3.83173 1.8133 -1.3724 1.3746 -4.01338 -52.2562 15.1509 3.376 -1.1087 2.5453 -0.295546 -0.290346 -0.640333 2.223 -0.7955 1.6016 5.7913 7.3801 14.1628 -2.1846 20.8826 7.1545 2.71695 0.132674 2.80541 -12.7651 2.9958 -4.8475 43.1817 -36.2715 -31.7438 -27.1108 -0.0961 -0.2349 -1.83372 1.39302 136.8 -22.6162 0.0656 -0.1355 5.44207 -2.24465 -31.38 -8.7654 0.7667 2.4346 6.78569 5.51682 -9.28074 -3.2787 -0.7995 0.5777 14.4781 5.81744 -2.15125 -2.2383 -0.5461 0.3945 19.2757 7.57333 -3.16857 -8.8962 0.8853 0.212 19.1335 3.44545 -0.526385 -4.0539 0.0113 -0.024 4.44238 0.813422 -0.0261399 -2.2471 0.0069 -0.0137 15.5759 2.82224 -0.341869 -8.431 0.5908 -1.9946 23.4509 -1.07748 4.87305 -3.6785 -0.1862 -0.2303 7.69616 -0.582159 1.54629 -2.0962 -0.1055 -0.1317 8.29186 -0.618459 1.66887 -7.8236 -0.5945 -3.4447 18.6064 -1.52035 24.1536 -2.2626 -0.4718 -0.624601 10.0729 -3.80148 3.34336 -1.6592 -0.3454 -0.4583 16.4136 -5.82874 5.72781 -1.8133 -1.3723 1.3745 8.5072 -52.2338 4.01585 -3.3759 -1.1088 2.5454 -3.01391 3.58281 -7.28243 -2.223 -0.7954 1.6016 -1.84011 2.07605 -4.3262 -9.0969 3.8439 -0.7498 6.98598 -28.3145 8.16952 -0.7279 -39.5674 0 161.118 32.0236 -162.59 0 -38.8528 0 -8.46542 7.51762 36.9205 -7.10543e-015 -4.2703 8.9297 0.0139158 0.39058 -0.426476 9.0968 3.8442 -0.7498 5.29842 22.8901 -35.6944 0.728 -39.5676 0 -5.92827 54.1524 12.0393 0 -38.8528 1.42109e-014 2.70196 -1.37633 -7.637 0 -4.2703 8.9297 0.00490953 0.396741 0.402437 
-14.1247 71.8454 117.952 19.013 73.5103 -163.407 -3.55271e-015 8.5038 -4.6017 -3.27698 -0.666881 -2.33806 -3.55271e-015 7.7603 0.4054 -6.57896 -1.19848 -4.71079 0 9.6025 -2.1374 -6.57896 -1.19846 -4.71078 7.10543e-015 21.6389 -0.45 3.57441e-005 0.000139536 4.6288e-005 -0.0001 12.2197 3.3238 -5.73258 -19.1817 -55.0789 2.1846 20.8826 7.1545 29.788 0.816545 2.09302 12.7628 2.9953 -4.8467 -65.0197 0.0146329 -64.2344 27.1108 -0.0961 -0.2349 0.314 1.31894 -105.838 22.6162 0.0656 -0.1355 -44.3585 -25.8968 -43.9425 8.7654 0.7666 2.4346 -16.8682 8.44511 11.4869 3.2787 -0.7995 0.5777 -15.0577 6.60052 2.35954 2.2383 -0.5459 0.3945 -27.845 11.4134 5.59232 8.8962 0.8853 0.212 -27.2205 5.58198 1.37236 4.0539 0.0113 -0.0239 -8.19308 1.76508 0.142012 2.2471 0.0069 -0.0137 -24.0289 5.03457 1.05721 8.431 0.5908 -1.9946 -28.7971 -0.492871 -5.74078 3.6785 -0.1862 -0.2303 -9.99517 -0.42114 -1.94205 2.0962 -0.1055 -0.1317 -16.534 -0.514218 -3.23868 7.8236 -0.5945 -3.4447 -3.04108 -4.15324 -23.6321 2.2626 -0.4719 -0.6246 -17.5399 -5.62262 -5.8935 1.6592 -0.3455 -0.4583 -12.0082 -4.07004 -3.8737 1.8133 -1.3724 1.3746 -3.9266 -52.1759 15.2308 3.376 -1.1087 2.5453 -0.22689 -0.223479 -0.492027 2.223 -0.7955 1.6016 5.74805 7.30894 14.04 -2.1846 20.8826 7.1545 2.58702 0.119238 2.64754 -12.7651 2.9958 -4.8475 44.0374 -35.7365 -30.6984 -27.1108 -0.0961 -0.2349 -1.83677 1.3912 136.961 -22.6162 0.0656 -0.1355 5.10524 -1.59325 -32.2036 -8.7654 0.7667 2.4346 6.8148 5.52383 -9.28622 -3.2787 -0.7995 0.5777 14.6028 5.86433 -2.1759 -2.2383 -0.5461 0.3945 18.952 7.45809 -3.09544 -8.8962 0.8853 0.212 19.2868 3.47204 -0.535209 -4.0539 0.0113 -0.024 4.53945 0.831157 -0.0258112 -2.2471 0.0069 -0.0137 14.5762 2.64508 -0.297039 -8.431 0.5908 -1.9946 23.618 -1.07897 4.90883 -3.6785 -0.1862 -0.2303 8.18156 -0.61182 1.64616 -2.0962 -0.1055 -0.1317 6.72797 -0.520469 1.3478 -7.8236 -0.5945 -3.4447 18.6506 -1.51918 24.167 -2.2626 -0.4718 -0.624601 10.209 -3.84811 3.39247 -1.6592 -0.3454 -0.4583 15.5912 -5.5826 5.40787 -1.8133 -1.3723 1.3745 8.5872 -51.9303 4.03514 -3.3759 -1.1088 2.5454 -3.01398 3.5829 -7.28266 -2.223 -0.7954 1.6016 -1.84015 2.07609 -4.32608 -9.0969 3.8439 -0.7498 6.49735 -28.2656 7.90477 -0.7279 -39.5674 1.42109e-014 161.137 31.9511 -162.576 1.77636e-015 -38.8528 1.42109e-014 -8.51207 7.45774 37.085 0 -4.2703 8.9297 0.0139216 0.390576 -0.427213 9.0968 3.8442 -0.7498 5.23847 22.8572 -35.9694 0.728 -39.5676 1.42109e-014 -6.0663 54.4776 12.2077 0 -38.8528 1.42109e-014 2.48704 -1.55995 -7.61054 0 -4.2703 8.9297 0.00492214 0.397012 0.402936 
-13.8853 71.7933 117.888 18.7149 73.5475 -163.063 -1.06581e-014 8.5038 -4.6017 -3.28182 -0.651923 -2.39191 -7.10543e-015 7.7603 0.4054 -6.58851 -1.16533 -4.81759 7.10543e-015 9.6025 -2.1374 -6.58853 -1.16535 -4.81761 0 21.6389 -0.45 3.57441e-005 0.000139536 4.6288e-005 -0.0001 12.2197 3.3238 -6.03496 -19.8134 -54.0098 2.1846 20.8826 7.1545 29.3223 0.900765 2.25676 12.7628 2.9953 -4.8467 -64.3333 -0.509481 -64.237 27.1108 -0.0961 -0.2349 0.309592 1.31695 -105.516 22.6162 0.0656 -0.1355 -44.7817 -25.9922 -45.1205 8.7654 0.7666 2.4346 -16.9252 8.45836 11.5005 3.2787 -0.7995 0.5777 -15.1048 6.6198 2.36951 2.2383 -0.5459 0.3945 -27.7767 11.3902 5.57249 8.8962 0.8853 0.212 -27.2507 5.58882 1.37497 4.0539 0.0113 -0.0239 -8.24283 1.77575 0.140738 2.2471 0.0069 -0.0137 -24.0731 5.04325 1.06109 8.431 0.5908 -1.9946 -28.7504 -0.460417 -5.82251 3.6785 -0.1862 -0.2303 -10.0446 -0.422055 -1.9518 2.0962 -0.1055 -0.1317 -16.578 -0.514671 -3.24743 7.8236 -0.5945 -3.4447 -3.0087 -4.19176 -23.6224 2.2626 -0.4719 -0.6246 -17.5027 -5.61289 -5.87949 1.6592 -0.3455 -0.4583 -12.147 -4.11157 -3.92276 1.8133 -1.3724 1.3746 -3.85366 -52.0974 15.308 3.376 -1.1087 2.5453 -0.136202 -0.134618 -0.2958 2.223 -0.7955 1.6016 5.67337 7.18689 13.8291 -2.1846 20.8826 7.1545 2.37494 0.106244 2.56904 -12.7651 2.9958 -4.8475 44.9073 -35.1869 -29.8802 -27.1108 -0.0961 -0.2349 -1.84177 1.38807 137.233 -22.6162 0.0656 -0.1355 4.7145 -0.95174 -32.9464 -8.7654 0.7667 2.4346 6.8448 5.53102 -9.29187 -3.2787 -0.7995 0.5777 14.7314 5.9126 -2.2014 -2.2383 -0.5461 0.3945 18.6416 7.34718 -3.02603 -8.8962 0.8853 0.212 19.4414 3.49881 -0.544176 -4.0539 0.0113 -0.024 4.66296 0.853738 -0.0258245 -2.2471 0.0069 -0.0137 13.573 2.46646 -0.255132 -8.431 0.5908 -1.9946 23.7843 -1.08049 4.94442 -3.6785 -0.1862 -0.2303 8.6816 -0.64148 1.74928 -2.0962 -0.1055 -0.1317 5.17807 -0.414759 1.03227 -7.8236 -0.5945 -3.4447 18.6955 -1.51818 24.1807 -2.2626 -0.4718 -0.624601 10.3506 -3.89646 3.44365 -1.6592 -0.3454 -0.4583 14.7683 -5.33126 5.09074 -1.8133 -1.3723 1.3745 8.66571 -51.6256 4.05352 -3.3759 -1.1088 2.5454 -3.01401 3.58295 -7.28284 -2.223 -0.7954 1.6016 -1.84016 2.07607 -4.32589 -9.0969 3.8439 -0.7498 5.97529 -28.3097 7.5705 -0.7279 -39.5674 -1.42109e-014 161.162 31.8635 -162.558 0 -38.8528 1.42109e-014 -8.50416 7.44378 37.234 0 -4.2703 8.9297 0.0139274 0.390573 -0.427955 9.0968 3.8442 -0.7498 5.19905 22.7305 -36.3101 0.728 -39.5676 1.42109e-014 -6.22726 54.8474 12.4021 -8.88178e-016 -38.8528 0 2.2353 -1.76582 -7.59065 -1.77636e-015 -4.2703 8.9297 0.00490411 0.397278 0.403466 
